<?xml version="1.0" standalone="no"?>
<!DOCTYPE svg PUBLIC "-//W3C//DTD SVG 20010904//EN"
 "http://www.w3.org/TR/2001/REC-SVG-20010904/DTD/svg10.dtd">
<svg version="1.0" xmlns="http://www.w3.org/2000/svg"
 width="1280.000000pt" height="1280.000000pt" viewBox="0 0 1280.000000 1280.000000"
 preserveAspectRatio="xMidYMid meet">
<metadata>
Created by potrace 1.16, written by Peter Selinger 2001-2019
</metadata>
<g transform="translate(0.000000,1280.000000) scale(0.100000,-0.100000)"
fill="#000000" stroke="none">
<path d="M1810 12789 c-307 -39 -624 -157 -881 -327 -509 -336 -843 -875 -918
-1482 -15 -118 -15 -9042 0 -9160 55 -451 256 -870 573 -1198 264 -274 649
-491 1016 -572 237 -53 -47 -50 4797 -50 4017 0 4514 2 4615 16 934 128 1661
866 1777 1804 15 118 15 9042 0 9160 -39 316 -153 629 -327 891 -336 509 -875
843 -1482 918 -103 13 -9070 13 -9170 0z m5220 -1693 c1298 -134 2257 -690
2905 -1686 206 -317 375 -672 515 -1085 l59 -175 -37 -9 c-185 -49 -733 -190
-748 -193 -15 -2 -24 12 -47 77 -425 1223 -1172 1933 -2272 2159 -317 66 -591
90 -1005 90 -329 -1 -496 -13 -745 -55 -1064 -180 -1812 -788 -2208 -1794
-243 -618 -363 -1413 -344 -2280 18 -782 153 -1401 428 -1955 481 -968 1338
-1535 2487 -1645 205 -20 601 -19 813 1 894 85 1623 429 2054 969 261 327 397
737 382 1155 -11 293 -85 522 -251 765 -82 121 -265 304 -384 383 -51 34 -97
62 -101 62 -4 0 -21 -66 -39 -147 -114 -528 -313 -937 -600 -1235 -147 -153
-276 -248 -473 -348 -208 -106 -483 -183 -753 -209 -139 -14 -416 -14 -526 -1
-691 86 -1260 501 -1459 1063 -57 161 -74 272 -74 462 0 246 36 430 125 633
244 557 856 931 1665 1017 161 17 461 19 723 5 194 -11 449 -35 513 -50 l37
-8 0 44 c0 116 -65 317 -146 453 -150 253 -375 416 -682 494 -78 20 -111 22
-332 22 -189 -1 -267 -5 -340 -18 -312 -57 -504 -168 -709 -410 l-64 -76 -46
31 c-25 17 -180 123 -343 236 -261 180 -296 207 -287 223 5 10 45 63 88 116
101 127 282 301 401 385 194 137 445 247 696 303 181 41 309 55 539 62 320 9
541 -19 790 -102 665 -218 1100 -757 1259 -1555 27 -135 56 -347 57 -413 l0
-42 187 -92 c281 -138 514 -299 706 -489 415 -411 633 -909 653 -1489 16 -447
-81 -893 -282 -1300 -201 -410 -478 -739 -860 -1025 -519 -389 -1200 -635
-1980 -715 -219 -23 -689 -31 -896 -16 -1402 102 -2480 726 -3131 1811 -318
528 -534 1196 -628 1932 -43 339 -53 526 -54 963 0 426 7 574 44 905 170 1508
807 2624 1855 3250 531 317 1128 497 1855 559 163 14 828 5 1010 -13z"/>
<path d="M6542 6280 c-720 -57 -1092 -338 -1092 -824 0 -166 53 -290 174 -411
127 -125 297 -208 523 -254 195 -40 437 -36 653 10 506 109 784 486 885 1199
8 58 15 126 15 151 l0 45 -142 27 c-79 15 -201 34 -273 42 -158 19 -588 27
-743 15z"/>
</g>
</svg>
